# xmcd CD database file
#
# Track frame offsets:
#	150
#	26295
#	50392
#	71032
#	89705
#	115347
#	135947
#	163082
#	183285
#	215584
#
# Disc length: 3142 seconds
#
# Revision: 0
# Processed by: cddbd v1.4PL0 Copyright (c) Steve Scherf et al.
# Submitted via: CDex 1.40Beta8
#
DISCID=890c440a
DTITLE=Kelly Richey - The Blues Don't Lie
DYEAR=1995
DGENRE=Blues
TTITLE0=Tears Like Rain
TTITLE1=Black Cat Bone
TTITLE2=The Blues Don't Lie
TTITLE3=Sold Me Down The River
TTITLE4=Scandalized
TTITLE5=Set It Off
TTITLE6=Tuetle Blues
TTITLE7=Futher On Up The Road
TTITLE8=Key To The Highway
TTITLE9=Angel
EXTD=YEAR: 1995 ID3G: 0
EXTT0=
EXTT1=
EXTT2=
EXTT3=
EXTT4=
EXTT5=
EXTT6=
EXTT7=
EXTT8=
EXTT9=
PLAYORDER=
